<?xml version="1.0" standalone="no"?>
<!DOCTYPE svg PUBLIC "-//W3C//DTD SVG 20010904//EN"
 "http://www.w3.org/TR/2001/REC-SVG-20010904/DTD/svg10.dtd">
<svg version="1.0" xmlns="http://www.w3.org/2000/svg"
 width="1000.000000pt" height="1000.000000pt" viewBox="0 0 1000.000000 1000.000000"
 preserveAspectRatio="xMidYMid meet">

<g transform="translate(0.000000,1000.000000) scale(0.100000,-0.100000)"
fill="#000000" stroke="none">
<path d="M0 5000 l0 -5000 1543 0 c1384 1 1539 2 1517 16 l-25 15 30 -6 c141
-26 212 -28 175 -5 -8 6 -23 10 -32 10 -9 0 -29 5 -45 12 -15 6 -32 12 -38 14
-158 38 -183 43 -230 50 -22 2 -41 9 -43 13 -2 5 -11 7 -20 4 -20 -5 -178 43
-187 57 -3 6 -15 10 -26 10 -11 0 -17 4 -14 10 4 6 -1 7 -11 3 -17 -6 -224 94
-224 109 0 5 11 8 25 8 14 0 25 5 25 10 0 6 -6 10 -12 10 -7 0 -41 4 -76 9
-64 10 -85 24 -116 81 -23 42 -46 176 -52 309 -6 131 -6 129 50 456 14 77 34
217 46 310 30 251 70 482 174 1005 19 96 39 209 46 250 27 170 51 297 100 520
28 129 60 275 70 323 23 110 83 251 124 295 17 19 47 42 66 52 19 10 51 33 70
50 32 28 144 100 156 100 3 0 67 42 142 93 200 135 317 209 407 258 82 44 196
116 228 144 9 8 17 12 17 7 0 -4 4 0 9 7 6 9 6 22 0 32 -5 10 -6 31 -3 47 4
19 1 32 -7 37 -8 6 -10 4 -4 -5 6 -9 4 -11 -4 -5 -9 5 -9 11 -3 17 6 6 8 17 5
25 -4 11 -8 10 -20 -4 -12 -14 -12 -12 1 9 14 24 14 27 -2 33 -16 6 -16 7 1
20 17 12 15 14 -17 34 -40 25 -46 38 -46 95 0 74 -32 227 -52 251 -4 5 -8 19
-8 32 0 29 35 32 43 3 3 -11 10 -20 17 -20 6 0 8 4 5 10 -3 5 -8 23 -10 40 -3
24 0 30 16 30 20 0 26 15 9 25 -6 4 -8 11 -5 16 4 5 1 9 -6 9 -7 0 -10 3 -6 6
3 3 -8 19 -24 35 -16 15 -29 37 -29 48 0 19 -2 19 -32 7 -30 -13 -51 -42 -41
-58 2 -5 -1 -8 -6 -8 -14 0 -14 47 -1 55 6 4 7 11 4 17 -10 16 -33 -33 -28
-60 4 -19 1 -23 -11 -18 -9 3 -20 6 -25 6 -14 0 -17 34 -3 45 7 6 14 22 15 36
2 15 9 34 16 42 14 17 19 37 22 88 3 59 0 77 -13 75 -17 -2 -77 -66 -77 -81 0
-7 -8 -19 -18 -28 -20 -19 -37 -23 -27 -7 3 6 2 10 -3 10 -19 0 24 130 47 144
18 11 14 49 -5 42 -19 -7 -12 5 39 67 22 26 37 50 33 54 -3 4 -12 1 -18 -5
-23 -23 -28 -12 -6 13 25 29 40 33 31 8 -5 -17 -4 -17 11 -2 10 9 19 25 20 35
2 10 9 18 15 16 6 -1 16 10 21 24 15 38 22 24 9 -15 -6 -17 -19 -35 -28 -40
-9 -5 -25 -24 -35 -43 -18 -30 -15 -28 27 15 34 34 47 42 47 30 0 -10 13 4 30
32 16 27 27 52 25 56 -3 3 4 14 15 24 11 10 20 13 20 7 0 -6 -5 -14 -10 -17
-6 -3 -8 -16 -5 -28 3 -12 0 -30 -8 -41 -14 -20 -11 -70 4 -60 5 3 9 17 9 31
0 14 18 52 40 85 44 66 49 79 23 56 -32 -27 -41 -29 -36 -8 6 24 40 50 65 50
9 0 22 8 28 18 8 12 13 14 17 4 4 -10 8 -10 19 -1 24 19 29 1 11 -36 -9 -20
-17 -42 -17 -50 0 -29 -36 -75 -62 -81 -16 -3 -28 -10 -28 -15 0 -6 -16 -27
-36 -47 -37 -38 -67 -86 -59 -94 3 -3 -2 -5 -11 -5 -15 0 -15 9 2 52 l7 20
-22 -20 c-13 -11 -26 -19 -29 -17 -4 2 -8 -2 -11 -9 -2 -6 1 -9 6 -6 13 8 15
-41 2 -66 -10 -21 -10 -21 5 -3 15 19 51 33 41 16 -3 -5 -1 -11 5 -15 13 -8 1
-28 -14 -22 -6 3 -12 -6 -12 -19 -2 -31 7 -30 36 1 13 14 27 25 32 25 12 0 10
-41 -4 -60 -7 -9 -3 -5 10 8 12 13 22 30 22 38 0 8 9 31 19 52 10 20 19 41 20
45 0 4 7 14 15 22 11 11 15 12 19 2 7 -18 21 -1 52 62 46 92 129 166 112 99
-3 -10 -2 -32 3 -48 5 -18 5 -32 -1 -35 -5 -4 -9 0 -10 7 -1 7 -5 2 -10 -12
-7 -19 -8 -14 -4 20 l5 45 -35 -39 c-36 -40 -46 -70 -21 -60 11 4 13 0 9 -15
-3 -12 -9 -24 -14 -27 -12 -7 -11 -34 1 -34 6 0 14 10 19 22 l8 23 7 -23 c4
-12 4 -26 1 -32 -3 -5 -2 -10 3 -10 5 0 17 20 28 45 22 53 32 57 36 13 2 -24
10 -36 31 -46 15 -7 27 -18 27 -23 0 -6 5 -7 11 -4 6 4 8 13 5 20 -2 7 2 16
10 19 8 3 14 12 14 21 0 9 9 15 23 16 12 0 16 3 10 6 -8 3 -11 14 -7 29 3 13
3 35 0 49 -5 20 -11 24 -29 20 -16 -4 -29 0 -41 14 -19 21 -19 21 4 41 29 25
47 25 55 0 10 -30 20 -24 20 11 0 28 3 32 33 34 26 2 32 -1 32 -16 0 -11 -4
-19 -10 -19 -5 0 -10 -4 -10 -10 0 -5 7 -7 16 -3 14 5 13 3 -2 -15 -10 -12
-26 -22 -36 -22 -24 0 -23 -27 2 -40 16 -9 27 -7 51 11 26 18 33 19 40 8 23
-37 35 -49 51 -49 10 0 18 -4 18 -10 0 -5 -7 -10 -15 -10 -8 0 -15 -9 -15 -20
0 -14 -5 -18 -16 -13 -13 5 -15 2 -9 -17 7 -21 67 -90 79 -90 3 0 24 -18 47
-40 29 -27 39 -44 35 -56 -5 -14 -4 -15 9 -4 13 11 13 16 -5 45 -11 18 -20 39
-20 46 0 12 2 12 9 0 5 -7 14 -10 21 -6 9 6 9 9 -1 16 -10 6 -10 9 -2 9 7 0
10 7 7 15 -4 8 -3 15 0 15 4 0 11 -12 16 -26 8 -21 15 -25 33 -21 22 6 22 6
-2 -12 -23 -18 -23 -19 -5 -29 10 -6 18 -13 17 -16 -2 -3 -3 -22 -3 -42 0 -29
3 -34 13 -26 10 9 13 5 14 -16 1 -45 2 -50 16 -55 10 -4 13 8 12 47 -1 29 -5
58 -10 65 -4 7 -2 18 4 24 8 8 11 7 11 -3 0 -7 2 -11 5 -8 3 3 0 18 -6 34 -7
16 -13 35 -15 43 -1 7 -13 24 -25 37 -12 13 -18 24 -12 24 12 0 55 -42 90 -87
30 -39 52 -43 46 -10 -3 12 -21 33 -41 47 -20 13 -52 37 -69 54 -35 31 -39 28
-35 -26 1 -10 -3 -18 -8 -18 -6 0 -10 7 -10 15 0 8 -9 29 -20 47 -11 18 -20
40 -20 49 0 9 -10 24 -22 35 -20 18 -21 18 -15 1 9 -23 -2 -45 -13 -27 -4 7
-19 13 -34 13 -14 1 -26 5 -26 9 0 3 -3 13 -6 22 -4 10 -1 16 8 16 24 0 20 60
-5 81 l-22 19 28 -10 c48 -17 81 -37 107 -65 14 -15 38 -36 53 -47 27 -20 29
-20 27 -2 -7 61 17 73 47 24 12 -21 25 -30 44 -30 14 0 38 -9 53 -21 15 -11
33 -18 41 -15 9 3 15 0 15 -8 0 -7 8 -20 17 -27 15 -12 16 -12 8 1 -5 8 9 -2
30 -22 37 -36 64 -51 50 -28 -3 6 -1 10 6 10 6 0 9 -8 6 -20 -3 -12 0 -20 7
-20 19 0 40 -43 42 -90 2 -25 6 -55 9 -67 3 -13 1 -23 -5 -23 -5 0 -10 -6 -10
-14 0 -16 31 -16 42 -1 4 6 8 2 8 -8 0 -15 2 -16 14 -5 17 16 15 27 -8 62 -10
15 -15 30 -12 33 9 9 46 -27 63 -61 14 -26 14 -28 -1 -23 -19 7 -20 3 -6 -23
8 -15 6 -17 -10 -13 -15 4 -20 0 -20 -14 0 -43 57 -66 102 -42 11 6 22 8 25 5
6 -6 -11 -25 -45 -48 -13 -9 -19 -19 -14 -22 5 -3 26 5 46 19 43 29 47 15 7
-26 -28 -28 -45 -32 -113 -32 -15 0 -25 -4 -22 -8 3 -5 10 -7 15 -3 6 3 9 -2
7 -12 -3 -17 4 -19 70 -16 80 3 89 -8 26 -34 -28 -12 -32 -17 -22 -28 7 -8 16
-12 21 -9 4 2 7 -5 7 -16 0 -17 -5 -19 -37 -15 -21 2 -32 2 -25 -2 6 -3 12
-11 12 -17 1 -7 9 -30 20 -52 22 -47 25 -68 6 -42 -14 18 -33 7 -22 -12 7 -10
-41 -71 -55 -71 -19 0 -8 21 16 30 27 10 35 50 10 50 -8 0 -15 7 -15 16 0 9
-6 14 -12 11 -7 -2 -12 -15 -10 -29 4 -36 -32 -68 -77 -68 -24 0 -32 -3 -22
-9 7 -5 22 -6 32 -4 10 3 19 0 19 -6 0 -11 -47 -27 -55 -19 -3 2 -8 18 -11 35
-5 27 -2 33 22 47 31 17 35 15 -48 21 -48 3 -94 40 -109 88 -7 20 -15 37 -19
37 -3 0 -22 -21 -41 -46 -19 -26 -58 -64 -86 -86 -43 -31 -53 -44 -52 -66 1
-22 3 -23 6 -6 4 21 53 41 53 22 0 -20 39 14 48 42 15 41 22 38 15 -5 -3 -20
-2 -35 3 -34 22 4 34 -2 35 -18 0 -16 2 -15 10 2 8 17 9 16 5 -8 -2 -20 3 -33
22 -47 l25 -20 -32 0 c-37 0 -53 -26 -28 -45 21 -15 22 -29 2 -21 -13 4 -12 1
2 -18 10 -13 21 -19 24 -14 3 5 9 1 11 -10 5 -19 33 -28 113 -37 17 -2 56 -11
88 -18 l58 -15 10 27 c5 14 13 35 18 46 5 11 20 47 32 80 13 33 36 79 52 103
28 42 44 55 34 27 -4 -8 -2 -17 3 -20 4 -3 16 16 26 42 9 27 26 57 37 68 19
20 19 20 8 -2 -6 -12 -11 -34 -11 -50 -1 -15 -7 -39 -15 -53 -8 -14 -14 -34
-15 -44 0 -18 1 -18 20 -1 11 10 18 21 15 25 -7 11 29 8 38 -4 5 -6 5 -1 2 12
-8 26 3 65 15 57 5 -3 16 7 24 22 14 27 15 26 9 -27 -6 -51 -5 -54 11 -41 12
10 13 16 6 21 -8 5 -7 9 3 13 10 4 18 -2 22 -16 6 -18 8 -19 12 -5 3 12 12 16
34 13 22 -3 29 1 29 13 0 10 3 13 8 7 16 -23 40 -12 47 21 6 35 25 57 25 30 0
-19 11 -21 28 -4 9 9 12 9 12 0 0 -7 7 -12 16 -12 8 0 13 -4 10 -8 -2 -4 3
-13 13 -19 16 -10 20 -7 30 14 9 20 15 23 24 14 9 -9 8 -14 -3 -22 -12 -8 -11
-9 5 -7 11 1 26 -1 32 -5 9 -6 11 -3 7 7 -3 9 -2 16 2 17 5 0 21 3 36 5 14 2
30 0 33 -6 11 -19 37 27 30 51 -10 31 11 15 31 -23 11 -22 18 -27 24 -18 5 9
9 9 14 1 10 -15 28 -3 20 12 -3 7 3 2 13 -10 18 -22 72 -48 80 -39 9 8 -8 26
-19 20 -6 -4 -8 3 -6 17 2 15 10 23 26 24 17 1 21 -2 17 -14 -3 -8 -3 -12 1
-8 4 4 14 1 23 -6 8 -6 5 2 -7 20 -12 17 -22 39 -22 48 0 10 -5 13 -12 9 -7
-4 -8 -3 -4 5 8 12 15 9 59 -31 11 -9 26 -14 36 -10 14 5 13 7 -4 12 -11 3
-21 10 -22 17 -2 8 8 6 27 -5 30 -17 39 -32 19 -32 -8 0 -8 -5 1 -15 7 -8 16
-13 20 -10 5 3 18 -7 30 -22 11 -15 31 -34 43 -42 l22 -15 -19 29 c-10 17 -23
35 -30 40 -6 6 -17 19 -25 30 -8 11 8 -2 36 -30 55 -56 157 -242 147 -269 -3
-9 -11 -13 -17 -9 -7 4 -8 0 -3 -13 5 -10 12 -35 17 -54 32 -122 52 -165 71
-154 4 3 5 -3 1 -12 -4 -11 -8 -13 -11 -6 -2 7 -8 10 -12 7 -5 -3 -2 -21 6
-40 8 -19 10 -35 5 -35 -10 0 -7 -61 6 -118 5 -18 12 -33 17 -32 6 0 11 -5 12
-12 1 -7 5 -21 9 -30 8 -21 2 -22 -26 -8 -14 8 -19 7 -19 -1 0 -6 -7 -9 -15
-5 -25 9 -17 -8 21 -45 33 -31 104 -131 104 -145 0 -3 13 -25 29 -48 15 -24
31 -59 35 -79 4 -20 22 -78 40 -129 19 -51 42 -127 50 -168 9 -41 28 -127 42
-190 14 -63 34 -176 45 -250 11 -74 27 -169 35 -210 8 -41 21 -113 30 -160 9
-47 25 -125 36 -175 11 -49 26 -148 34 -220 8 -71 19 -152 24 -180 5 -27 16
-86 24 -130 19 -108 82 -371 111 -465 13 -41 33 -109 45 -150 12 -41 31 -103
42 -137 11 -34 28 -102 38 -150 10 -49 28 -122 40 -163 11 -41 28 -115 36
-165 20 -114 66 -298 99 -394 14 -41 25 -83 25 -94 0 -10 18 -76 39 -145 22
-70 45 -156 51 -192 6 -36 13 -77 16 -93 l6 -27 1269 0 1269 0 0 5000 0 5000
-5000 0 -5000 0 0 -5000z m3861 4869 c41 -48 31 -89 -22 -89 -28 0 -69 30 -69
49 0 5 4 21 10 35 12 33 55 35 81 5z m195 -3615 c18 -14 18 -15 -6 -8 -14 4
-31 7 -37 7 -7 0 -13 4 -13 9 0 14 35 9 56 -8z m108 -29 c16 -9 31 -13 34 -10
7 7 32 -15 32 -28 0 -6 -7 -2 -16 9 -13 15 -15 16 -10 2 4 -15 2 -16 -22 -5
-15 6 -40 19 -57 29 -24 15 -26 18 -10 18 11 0 33 -7 49 -15z m-125 -44 c-36
-28 -109 -46 -109 -26 0 34 73 67 124 56 15 -3 13 -8 -15 -30z m643 0 c25 -16
49 -34 53 -40 4 -7 23 -22 43 -35 21 -13 45 -38 56 -56 l18 -32 -23 7 c-13 4
-26 12 -27 16 -2 5 -21 12 -43 15 -22 4 -42 11 -45 15 -3 5 -23 9 -45 9 -21 0
-39 3 -39 8 0 13 -79 42 -96 35 -13 -5 -16 -3 -11 10 3 9 2 17 -3 17 -6 0 -10
-5 -10 -11 0 -12 -59 -3 -74 12 -13 12 -3 20 36 26 18 3 41 9 50 14 29 15 51
11 44 -8 -4 -10 -4 -14 0 -11 4 4 15 3 26 -3 14 -7 22 -6 34 5 13 14 11 16
-18 25 l-33 9 31 1 c17 1 49 -11 76 -28z m-802 9 c-8 -5 -22 -10 -30 -10 -13
0 -13 1 0 10 8 5 22 10 30 10 13 0 13 -1 0 -10z m390 -10 c13 -8 13 -10 -2
-10 -9 0 -20 5 -23 10 -8 13 5 13 25 0z m-120 -10 c0 -5 -6 -10 -14 -10 -8 0
-18 5 -21 10 -3 6 3 10 14 10 12 0 21 -4 21 -10z m-60 -15 c0 -8 -9 -15 -19
-15 -24 0 -36 16 -19 23 24 10 38 7 38 -8z m-206 -6 c-4 -7 -7 -20 -8 -30 -1
-11 -5 -19 -11 -18 -5 0 -9 5 -7 10 1 5 -2 9 -7 9 -12 0 -35 -29 -28 -36 3 -4
-6 -16 -21 -28 -39 -30 -92 -59 -92 -48 0 15 72 93 113 123 40 29 74 39 61 18z
m96 -103 c0 -15 -18 -31 -26 -23 -7 7 7 37 17 37 5 0 9 -6 9 -14z m105 -25
c-3 -6 -11 -11 -17 -11 -6 0 -6 6 2 15 14 17 26 13 15 -4z m-2036 -5 c9 -11 9
-16 0 -22 -8 -4 -9 -3 -5 4 4 7 2 12 -3 12 -6 0 -11 5 -11 10 0 14 5 13 19 -4z
m2858 -117 c4 -34 3 -41 -7 -33 -6 6 -14 31 -17 55 -4 34 -3 41 7 33 6 -6 14
-31 17 -55z m-797 30 c0 -5 -7 -9 -15 -9 -9 0 -12 6 -9 15 6 15 24 11 24 -6z
m-2048 -21 c-8 -8 -9 -4 -5 13 4 13 8 18 11 10 2 -7 -1 -18 -6 -23z m2447
-132 c-5 -6 -17 -2 -29 9 -14 13 -17 21 -9 26 15 9 49 -23 38 -35z m-1001 -78
c-17 -26 -55 -35 -71 -19 -8 8 -1 11 25 11 23 0 38 6 42 15 3 8 8 15 12 15 3
0 0 -10 -8 -22z m61 -160 c0 -7 -9 -35 -19 -63 l-18 -50 -1 37 c-1 39 16 88
31 88 4 0 8 -6 7 -12z m-139 -8 c0 -25 -110 -44 -124 -21 -4 5 2 7 12 4 10 -2
34 2 53 10 41 18 59 20 59 7z m66 -68 c-17 -16 -18 -16 -5 5 7 12 15 20 18 17
3 -2 -3 -12 -13 -22z m-160 -37 c-9 -17 -12 -41 -9 -64 4 -27 3 -33 -6 -25
-18 17 -16 80 4 111 23 34 31 17 11 -22z m84 -31 c0 -8 -5 -12 -10 -9 -6 4 -8
11 -5 16 9 14 15 11 15 -7z m-38 -38 c2 -19 0 -32 -4 -30 -8 5 -12 64 -4 64 2
0 6 -15 8 -34z m100 -3 c3 -16 9 -37 13 -48 6 -16 2 -14 -23 9 -27 25 -29 30
-16 43 8 8 11 19 8 25 -4 6 -2 8 3 5 6 -4 13 -19 15 -34z m66 -7 c3 -12 -1
-17 -10 -14 -7 3 -15 13 -16 22 -3 12 1 17 10 14 7 -3 15 -13 16 -22z m-136
-18 c-8 -8 -9 -4 -5 13 4 13 8 18 11 10 2 -7 -1 -18 -6 -23z m158 -18 c4 0 11
-15 15 -32 12 -52 14 -78 6 -78 -10 0 -46 40 -61 68 -14 29 -6 56 16 48 9 -3
19 -6 24 -6z m-163 -22 c-3 -8 -6 -5 -6 6 -1 11 2 17 5 13 3 -3 4 -12 1 -19z
m33 -24 c0 -8 -5 -12 -10 -9 -6 4 -8 11 -5 16 9 14 15 11 15 -7z m258 -76 c15
-23 18 -36 11 -44 -7 -9 -5 -22 5 -43 9 -16 16 -39 16 -50 0 -11 4 -22 8 -25
12 -7 9 -135 -3 -144 -17 -12 -11 -37 8 -34 19 3 18 4 22 -51 l2 -38 -21 19
c-11 11 -30 22 -41 24 -15 2 -20 11 -20 33 0 19 5 29 13 28 16 -4 15 12 -1 29
-15 15 -36 74 -35 98 1 8 -2 26 -6 39 -6 18 -5 22 4 16 10 -6 12 0 7 28 -3 21
-2 37 4 37 5 0 9 7 9 15 0 8 -6 15 -14 15 -8 0 -17 7 -20 16 -8 22 -8 24 6 22
7 -2 14 7 16 20 4 29 6 28 30 -10z m2363 12 c24 -11 37 -20 29 -20 -18 1 -99
38 -84 39 7 1 31 -8 55 -19z m-949 -182 c-6 -6 -7 0 -4 19 5 21 7 23 10 9 2
-10 0 -22 -6 -28z m1302 -407 c-6 -6 -34 20 -34 32 0 6 8 2 19 -9 10 -10 17
-21 15 -23z"/>
<path d="M3561 5284 c0 -11 3 -14 6 -6 3 7 2 16 -1 19 -3 4 -6 -2 -5 -13z"/>
<path d="M3713 5863 c-7 -3 -13 -12 -13 -21 0 -15 2 -15 17 1 18 18 16 27 -4
20z"/>
<path d="M4675 5850 c3 -5 8 -10 11 -10 2 0 4 5 4 10 0 6 -5 10 -11 10 -5 0
-7 -4 -4 -10z"/>
<path d="M4715 5840 c3 -5 8 -10 11 -10 2 0 4 5 4 10 0 6 -5 10 -11 10 -5 0
-7 -4 -4 -10z"/>
<path d="M4750 5822 c0 -4 9 -13 20 -20 11 -7 20 -9 20 -4 0 4 -9 13 -20 20
-11 7 -20 9 -20 4z"/>
<path d="M4290 5782 c0 -5 7 -13 16 -16 10 -4 14 -1 12 6 -5 15 -28 23 -28 10z"/>
<path d="M3607 5693 c-4 -3 -7 -11 -7 -17 0 -6 5 -5 12 2 6 6 9 14 7 17 -3 3
-9 2 -12 -2z"/>
<path d="M4070 5656 c0 -28 3 -34 16 -29 18 7 16 54 -3 61 -9 2 -13 -8 -13
-32z"/>
<path d="M4306 5681 c-4 -5 -2 -12 3 -15 5 -4 12 -2 15 3 4 5 2 12 -3 15 -5 4
-12 2 -15 -3z"/>
<path d="M4120 5661 c-17 -33 -12 -46 10 -26 21 19 27 45 10 45 -5 0 -14 -9
-20 -19z"/>
<path d="M3654 5648 l-19 -23 23 19 c21 18 27 26 19 26 -2 0 -12 -10 -23 -22z"/>
<path d="M4306 5616 c4 -22 8 -49 9 -60 1 -12 3 -25 4 -31 3 -23 21 23 21 56
0 24 -7 42 -21 55 l-21 19 8 -39z"/>
<path d="M4230 5627 c0 -26 19 -59 31 -52 5 4 9 13 9 22 0 9 -3 13 -7 9 -4 -3
-13 4 -20 16 -10 19 -12 20 -13 5z"/>
<path d="M3656 5605 c-12 -18 -13 -25 -4 -24 19 1 55 17 41 18 -7 1 -13 5 -13
11 0 5 8 7 18 4 14 -5 15 -4 2 5 -21 15 -26 14 -44 -14z"/>
<path d="M4816 5612 c-2 -4 2 -16 10 -27 8 -10 14 -17 15 -14 0 2 2 12 4 21 3
17 -21 33 -29 20z"/>
<path d="M4206 5582 c-22 -5 -53 -32 -37 -32 5 0 12 4 15 9 3 5 15 7 25 4 10
-3 22 0 25 5 8 14 -4 20 -28 14z"/>
<path d="M4895 5560 c4 -14 3 -20 -3 -16 -5 3 -13 -6 -17 -22 l-7 -27 -15 25
c-10 17 -12 18 -8 5 4 -11 9 -40 11 -65 6 -62 21 -87 57 -94 16 -3 35 -13 42
-23 7 -9 17 -13 24 -8 9 5 7 12 -8 26 -39 36 -63 103 -63 175 0 19 -5 37 -10
40 -6 4 -8 -2 -3 -16z"/>
<path d="M4280 5551 c0 -12 5 -21 10 -21 6 0 10 6 10 14 0 8 -4 18 -10 21 -5
3 -10 -3 -10 -14z"/>
<path d="M4420 5550 c0 -5 -7 -10 -16 -10 -22 0 -13 -34 11 -39 17 -3 18 -1 6
13 -12 14 -9 20 11 18 3 -1 9 5 12 13 3 9 -1 15 -9 15 -8 0 -15 -4 -15 -10z"/>
<path d="M4825 5549 c-4 -6 -5 -12 -2 -15 2 -3 7 2 10 11 7 17 1 20 -8 4z"/>
<path d="M3943 5526 c-13 -6 -23 -16 -23 -23 0 -7 -6 -11 -12 -9 -7 1 -10 1
-5 -1 4 -3 5 -8 3 -11 -10 -17 50 -6 63 11 7 10 19 16 26 13 14 -5 28 18 18
28 -9 9 -45 5 -70 -8z"/>
<path d="M3730 5523 c0 -5 -11 -22 -25 -38 -14 -15 -20 -25 -14 -23 18 6 54
56 46 65 -4 3 -7 2 -7 -4z"/>
<path d="M4236 5514 c-4 -10 -1 -14 6 -12 15 5 23 28 10 28 -5 0 -13 -7 -16
-16z"/>
<path d="M3655 5500 c-10 -11 -14 -20 -9 -20 5 0 15 9 22 20 7 11 11 20 9 20
-2 0 -12 -9 -22 -20z"/>
<path d="M4134 5486 c-15 -12 -17 -17 -6 -27 10 -11 15 -10 29 4 24 23 4 43
-23 23z"/>
<path d="M3865 5482 c-15 -10 -35 -49 -35 -67 0 -8 7 -15 16 -15 8 0 12 -5 9
-10 -4 -6 -10 -8 -15 -5 -4 3 -7 -2 -6 -11 1 -8 8 -19 16 -24 10 -6 7 -9 -10
-12 -23 -3 -22 -4 16 -50 23 -27 47 -47 59 -47 11 1 14 3 8 6 -7 2 -13 9 -13
15 0 6 6 5 16 -3 10 -8 13 -21 9 -36 -4 -16 2 -34 20 -57 14 -18 25 -36 25
-39 0 -4 8 -24 17 -46 12 -27 23 -39 37 -38 12 0 29 -3 38 -7 13 -6 15 -3 11
13 -4 15 -1 21 11 21 9 0 16 5 16 11 0 5 -4 8 -9 5 -12 -8 -71 14 -71 25 0 5
-7 9 -16 9 -12 0 -14 4 -7 13 6 6 13 24 17 40 3 15 12 27 20 27 21 0 44 33 44
65 0 38 -35 88 -55 81 -8 -4 -28 5 -45 19 -39 33 -63 34 -48 3 l11 -23 -18 21
c-10 12 -24 31 -32 42 -8 12 -18 19 -22 17 -4 -3 -9 2 -12 9 -3 8 0 16 7 18 8
2 11 10 7 20 -3 10 -11 14 -16 10z m175 -182 c0 -5 -4 -10 -10 -10 -5 0 -10 5
-10 10 0 6 5 10 10 10 6 0 10 -4 10 -10z"/>
<path d="M4223 5475 c0 -8 4 -12 9 -9 5 3 6 10 3 15 -9 13 -12 11 -12 -6z"/>
<path d="M4440 5367 c0 -20 4 -38 10 -42 5 -3 8 9 6 29 -3 48 -16 58 -16 13z"/>
<path d="M4463 5267 c-2 -23 0 -28 7 -17 12 18 13 50 3 50 -5 0 -9 -15 -10
-33z"/>
<path d="M4847 5229 c-8 -29 1 -43 19 -28 11 9 14 8 14 -2 0 -8 12 -22 26 -32
24 -18 26 -18 45 -1 34 31 20 58 -36 67 -16 3 -37 8 -46 12 -12 4 -18 -1 -22
-16z"/>
<path d="M3771 5178 c1 -7 5 -24 9 -38 8 -24 8 -24 9 7 1 17 -3 35 -9 38 -5 3
-10 0 -9 -7z"/>
<path d="M4242 5168 c-7 -7 -12 -17 -12 -22 0 -6 5 -4 10 4 8 13 10 12 10 -2
0 -10 7 -18 16 -18 11 0 14 5 10 16 -3 9 -6 20 -6 25 0 13 -14 11 -28 -3z"/>
<path d="M6010 5024 c0 -3 7 -12 15 -20 13 -13 15 -13 15 -1 0 8 -7 17 -15 21
-8 3 -15 3 -15 0z"/>
<path d="M5172 4975 c0 -16 2 -22 5 -12 2 9 2 23 0 30 -3 6 -5 -1 -5 -18z"/>
<path d="M4216 4950 c1 -22 -2 -40 -6 -40 -4 0 -11 -11 -14 -24 -3 -13 -20
-39 -38 -57 -18 -19 -31 -40 -30 -46 2 -7 -2 -13 -8 -13 -5 0 -10 -7 -10 -16
0 -14 -2 -15 -17 -3 -15 12 -16 12 -8 -1 6 -12 5 -13 -5 -3 -11 11 -10 17 8
36 12 13 19 27 15 30 -3 4 0 7 8 7 12 0 12 2 0 9 -8 5 -20 7 -28 4 -8 -3 -25
5 -39 17 -13 13 -24 18 -24 12 0 -7 5 -12 11 -12 5 0 8 -4 5 -9 -3 -5 1 -14 9
-21 21 -17 19 -33 -9 -63 -13 -14 -21 -29 -17 -33 3 -4 0 -5 -8 -2 -8 2 -16
17 -18 32 -2 16 -11 47 -18 70 -8 23 -15 48 -15 57 0 9 -6 19 -14 22 -10 4
-12 -3 -5 -36 4 -23 10 -60 13 -82 13 -91 19 -120 23 -127 2 -4 18 -1 36 7 18
8 51 19 74 25 23 6 48 16 55 23 7 6 25 18 41 26 15 8 27 18 27 21 0 17 64 86
91 97 16 6 29 17 29 23 0 14 -32 45 -47 46 -33 3 -35 5 -29 34 5 26 3 30 -17
30 -21 0 -23 -4 -21 -40z"/>
<path d="M6048 4973 c7 -3 16 -2 19 1 4 3 -2 6 -13 5 -11 0 -14 -3 -6 -6z"/>
<path d="M3908 4962 c-15 -3 -15 -5 3 -23 24 -24 28 -22 20 6 -4 13 -13 19
-23 17z"/>
<path d="M4375 4890 c3 -5 11 -10 16 -10 6 0 7 5 4 10 -3 6 -11 10 -16 10 -6
0 -7 -4 -4 -10z"/>
<path d="M5935 4720 c-3 -5 -12 -7 -21 -3 -8 3 -25 -6 -39 -21 -14 -15 -25
-23 -25 -19 -1 9 -29 -38 -30 -49 0 -5 7 -8 16 -8 11 0 14 5 10 16 -4 10 1 22
11 29 14 11 22 7 54 -27 21 -23 39 -35 43 -29 4 5 13 8 21 4 9 -3 22 0 30 7 8
6 19 9 24 6 5 -4 13 0 18 7 4 8 16 18 27 24 17 10 17 11 -5 33 -13 12 -34 26
-47 31 -31 12 -79 12 -87 -1z m52 -67 c-21 -21 -27 -15 -16 16 7 19 12 22 21
13 9 -9 8 -16 -5 -29z"/>
<path d="M6193 4584 c-3 -9 0 -20 7 -24 7 -4 9 -16 6 -28 -4 -11 -2 -23 4 -27
6 -4 9 -13 6 -21 -3 -8 0 -14 6 -14 7 0 7 -4 1 -12 -5 -7 -9 -27 -9 -44 1 -26
-2 -30 -19 -26 -11 2 7 -12 39 -33 32 -20 65 -34 72 -31 7 3 15 0 17 -7 2 -7
7 -9 11 -6 9 8 -23 41 -33 35 -4 -3 -5 9 -3 27 3 18 1 29 -3 25 -15 -14 -34
42 -32 92 2 44 -1 53 -31 80 -27 24 -34 27 -39 14z"/>
<path d="M6185 4540 c-3 -5 -1 -10 4 -10 6 0 11 5 11 10 0 6 -2 10 -4 10 -3 0
-8 -4 -11 -10z"/>
<path d="M3510 2584 c-58 -20 -117 -45 -131 -55 -31 -21 -145 -170 -211 -274
-25 -38 -68 -101 -97 -140 -115 -153 -249 -401 -299 -555 -74 -225 -91 -384
-60 -560 40 -220 108 -374 257 -580 87 -119 265 -290 303 -290 4 0 16 17 27
37 11 21 31 48 45 61 15 14 29 42 36 75 11 54 39 107 124 238 47 72 52 77 100
89 55 14 122 63 149 110 17 29 148 216 208 297 36 49 59 119 59 177 0 35 14
62 94 183 104 157 114 185 102 296 -9 83 -17 95 -47 73 -13 -9 -31 -16 -40
-16 -9 0 -19 -6 -22 -12 -2 -7 -26 -19 -53 -26 -27 -8 -71 -24 -99 -36 -27
-13 -79 -26 -114 -30 -35 -3 -69 -12 -75 -20 -6 -7 -26 -16 -43 -20 -18 -3
-53 -15 -77 -26 -25 -11 -52 -20 -61 -20 -28 0 -73 57 -83 105 -11 52 -6 250
8 339 5 34 10 82 10 107 0 108 61 223 136 258 25 12 50 18 56 15 6 -4 8 -3 4
4 -3 6 4 14 16 18 13 4 25 10 28 13 15 20 91 53 163 72 104 26 115 35 86 65
-44 46 -83 56 -243 61 l-151 4 -105 -37z"/>
<path d="M4045 2383 c-98 -25 -213 -72 -292 -121 -77 -48 -92 -60 -87 -77 4
-11 9 -23 13 -27 3 -4 52 13 108 36 101 43 220 76 274 76 36 0 38 4 32 68 -6
52 -8 55 -48 45z"/>
<path d="M4000 2099 c-150 -49 -264 -91 -274 -100 -14 -13 -16 -39 -3 -39 7 0
46 11 89 24 42 13 100 27 130 30 29 4 84 14 121 23 69 16 69 16 63 46 -3 16
-6 33 -6 38 0 14 -19 11 -120 -22z"/>
<path d="M4190 2040 c0 -5 9 -10 20 -10 11 0 20 5 20 10 0 6 -9 10 -20 10 -11
0 -20 -4 -20 -10z"/>
<path d="M4090 1906 c-25 -8 -76 -21 -115 -31 -141 -36 -269 -80 -278 -96 -6
-9 -7 -23 -4 -32 5 -14 17 -13 104 9 165 42 198 53 287 94 52 24 86 46 86 55
0 18 -20 18 -80 1z"/>
<path d="M6405 393 c-4 -35 0 -65 14 -111 12 -35 28 -105 36 -155 20 -117 23
-127 41 -127 18 0 18 18 -6 120 -42 179 -60 264 -60 286 0 44 -18 34 -25 -13z"/>
<path d="M2430 320 c0 -5 7 -10 15 -10 8 0 15 5 15 10 0 6 -7 10 -15 10 -8 0
-15 -4 -15 -10z"/>
<path d="M2480 315 c0 -2 10 -10 23 -16 20 -11 21 -11 8 4 -13 16 -31 23 -31
12z"/>
</g>
</svg>
